<svg id="icons" enable-background="new 0 0 64 64" height="512" viewBox="0 0 64 64" width="512" xmlns="http://www.w3.org/2000/svg"><path d="m62.995 53.505c0 .55-.45 1-1 1h-59.99c-.55 0-1-.45-1-1v-39.01c0-.55.45-1 1-1h59.99c.55 0 1 .45 1 1z" fill="#ed5565"/><path d="m36.005 50.505c-2.21 0-4 1.79-4 4v-41.01c0-2.21 1.79-4 4-4h23.99v4 37.01z" fill="#e6e9ed"/><path d="m32.005 13.495v41.01c0-2.21-1.79-4-4-4h-23.99v-37.01-4h23.99c2.21 0 4 1.79 4 4z" fill="#f5f7fa"/><path d="m54.025 45.495c.55 0 1-.45 1-1v-11c0-.55-.45-1-1-1h-16c-.55 0-1 .45-1 1v11c0 .55.45 1 1 1h2 2 2 2z" fill="#5d9cec"/><path d="m45.343 40.926c-.034-.05-.085-.079-.126-.12s-.07-.092-.12-.126c-.007-.005-.016-.005-.022-.01-.064-.043-.138-.065-.21-.092-.051-.019-.098-.048-.15-.058-.063-.012-.126-.003-.19-.003s-.128-.009-.19.003c-.053.01-.1.039-.15.058-.072.026-.146.049-.21.092-.007.005-.016.005-.022.01-.049.034-.077.083-.118.124-.042.042-.093.071-.128.122l-3.198 4.569h1.52 2 1.713l.231-.325c.172.123.363.209.57.209.198 0 .397-.059.572-.181.452-.316.563-.94.246-1.393z" fill="#545c66"/><path d="m41.054 37.993c-.827 0-1.503-.669-1.503-1.496s.661-1.496 1.487-1.496h.016c.826 0 1.497.669 1.497 1.496s-.671 1.496-1.497 1.496z" fill="#ffce54"/><path d="m46.025 45.495h8c.471 0 .85-.337.954-.776l-4.143-5.802c-.033-.047-.081-.073-.12-.112s-.065-.087-.112-.12c-.01-.007-.021-.008-.031-.014-.063-.042-.131-.063-.2-.09-.053-.021-.104-.049-.158-.06-.065-.013-.132-.006-.198-.005-.062 0-.121-.007-.182.005-.059.011-.112.041-.169.063-.066.025-.132.046-.191.085-.01.007-.022.008-.032.015-.048.034-.074.082-.114.122-.038.039-.086.064-.118.11l-4.697 6.578c.506.001 1.104.001 1.511.001z" fill="#656d78"/><path d="m54.025 27.495c.55 0 1-.45 1-1v-11c0-.55-.45-1-1-1h-16c-.55 0-1 .45-1 1v11c0 .55.45 1 1 1h2 2 2 2z" fill="#5d9cec"/><path d="m45.343 22.926c-.034-.05-.085-.079-.126-.12s-.07-.092-.12-.126c-.007-.005-.016-.005-.022-.01-.064-.043-.138-.065-.21-.092-.051-.019-.098-.048-.15-.058-.063-.012-.126-.003-.19-.003s-.128-.009-.19.003c-.053.01-.1.039-.15.058-.072.026-.146.049-.21.092-.007.005-.016.005-.022.01-.049.034-.077.083-.118.124-.042.042-.093.071-.128.122l-3.198 4.569h1.52 2 1.713l.231-.325c.172.123.363.209.57.209.198 0 .397-.059.572-.181.452-.316.563-.94.246-1.393z" fill="#545c66"/><path d="m41.054 19.993c-.827 0-1.503-.669-1.503-1.496s.661-1.496 1.487-1.496h.016c.826 0 1.497.669 1.497 1.496s-.671 1.496-1.497 1.496z" fill="#ffce54"/><path d="m46.025 27.495h8c.471 0 .85-.337.954-.776l-4.143-5.802c-.033-.047-.081-.073-.12-.112s-.065-.087-.112-.12c-.01-.007-.021-.008-.031-.014-.063-.042-.131-.063-.2-.09-.053-.021-.104-.049-.158-.06-.065-.013-.132-.006-.198-.005-.062 0-.121-.007-.182.005-.059.011-.112.041-.169.063-.066.025-.132.046-.191.085-.01.007-.022.008-.032.015-.048.034-.074.082-.114.122-.038.039-.086.064-.118.11l-4.697 6.578c.506.001 1.104.001 1.511.001z" fill="#656d78"/><path d="m26.005 45.495c.55 0 1-.45 1-1v-11c0-.55-.45-1-1-1h-16c-.55 0-1 .45-1 1v11c0 .55.45 1 1 1h2 2 2 2z" fill="#5d9cec"/><path d="m17.322 40.926c-.034-.05-.085-.079-.126-.12s-.07-.092-.12-.126c-.007-.005-.016-.005-.022-.01-.064-.043-.138-.065-.21-.092-.051-.019-.098-.048-.15-.058-.063-.012-.126-.003-.19-.003s-.128-.009-.19.003c-.053.01-.1.039-.15.058-.072.026-.146.049-.21.092-.007.005-.016.005-.022.01-.049.034-.077.083-.118.124-.042.042-.093.071-.128.122l-3.198 4.569h1.52 2 1.713l.231-.325c.172.123.363.209.57.209.198 0 .397-.059.572-.181.452-.316.563-.94.246-1.393z" fill="#545c66"/><path d="m13.033 37.993c-.827 0-1.503-.669-1.503-1.496s.661-1.496 1.487-1.496h.016c.826 0 1.497.669 1.497 1.496s-.671 1.496-1.497 1.496z" fill="#ffce54"/><path d="m18.005 45.495h8c.471 0 .85-.337.954-.776l-4.143-5.802c-.033-.047-.081-.073-.12-.112s-.065-.087-.112-.12c-.01-.007-.021-.008-.031-.014-.063-.042-.131-.063-.2-.09-.053-.021-.104-.049-.158-.06-.065-.013-.132-.006-.198-.005-.062 0-.121-.007-.182.005-.059.011-.112.041-.169.063-.066.025-.132.046-.191.085-.01.007-.022.008-.032.015-.048.034-.074.082-.114.122-.038.039-.086.064-.118.11l-4.697 6.578c.505.001 1.104.001 1.511.001z" fill="#656d78"/><path d="m26.005 27.495c.55 0 1-.45 1-1v-11c0-.55-.45-1-1-1h-16c-.55 0-1 .45-1 1v11c0 .55.45 1 1 1h2 2 2 2z" fill="#5d9cec"/><path d="m17.322 22.926c-.034-.05-.085-.079-.126-.12s-.07-.092-.12-.126c-.007-.005-.016-.005-.022-.01-.064-.043-.138-.065-.21-.092-.051-.019-.098-.048-.15-.058-.063-.012-.126-.003-.19-.003s-.128-.009-.19.003c-.053.01-.1.039-.15.058-.072.026-.146.049-.21.092-.007.005-.016.005-.022.01-.049.034-.077.083-.118.124-.042.042-.093.071-.128.122l-3.198 4.569h1.52 2 1.713l.231-.325c.172.123.363.209.57.209.198 0 .397-.059.572-.181.452-.316.563-.94.246-1.393z" fill="#545c66"/><path d="m13.033 19.993c-.827 0-1.503-.669-1.503-1.496s.661-1.496 1.487-1.496h.016c.826 0 1.497.669 1.497 1.496s-.671 1.496-1.497 1.496z" fill="#ffce54"/><path d="m18.005 27.495h8c.471 0 .85-.337.954-.776l-4.143-5.802c-.033-.047-.081-.073-.12-.112s-.065-.087-.112-.12c-.01-.007-.021-.008-.031-.014-.063-.042-.131-.063-.2-.09-.053-.021-.104-.049-.158-.06-.065-.013-.132-.006-.198-.005-.062 0-.121-.007-.182.005-.059.011-.112.041-.169.063-.066.025-.132.046-.191.085-.01.007-.022.008-.032.015-.048.034-.074.082-.114.122-.038.039-.086.064-.118.11l-4.697 6.578c.505.001 1.104.001 1.511.001z" fill="#656d78"/></svg>