<svg t="1614572763813" class="delete icon" viewBox="0 0 1024 1024" version="1.1" xmlns="http://www.w3.org/2000/svg" p-id="15084"><path d="M883.712 143.36c-1.024 0-99.328-16.384-225.28-25.6C632.832 90.112 583.68 51.2 510.976 51.2S389.12 90.112 362.496 117.76c-129.024 9.216-231.424 25.6-232.448 25.6-11.264 2.048-18.432 12.288-17.408 23.552 2.048 10.24 10.24 17.408 20.48 17.408h3.072s6.144-1.024 16.384-2.048c-5.12 121.856-1.024 244.736 12.288 363.52 11.264 104.448 30.72 211.968 57.344 318.464 11.264 47.104 50.176 82.944 97.28 92.16 63.488 10.24 129.024 16.384 192.512 16.384 62.464 0 123.904-5.12 183.296-16.384 47.104-9.216 84.992-45.056 96.256-91.136 25.6-105.472 45.056-212.992 57.344-319.488 13.312-121.856 17.408-243.712 12.288-363.52 10.24 2.048 16.384 2.048 16.384 3.072 11.264 2.048 21.504-5.12 23.552-16.384 2.048-13.312-6.144-23.552-17.408-25.6zM655.36 299.008c-1.024-11.264 7.168-21.504 18.432-22.528 11.264-1.024 21.504 7.168 22.528 18.432 0 5.12 10.24 131.072 0 264.192s-39.936 259.072-40.96 264.192c-2.048 9.216-10.24 15.36-19.456 15.36-2.048 0-3.072 0-5.12-1.024-11.264-3.072-17.408-13.312-15.36-24.576 0-1.024 30.72-128 40.96-258.048 9.216-128-1.024-254.976-1.024-256z m-337.92-4.096c1.024-11.264 11.264-19.456 22.528-18.432 11.264 1.024 19.456 11.264 18.432 22.528 0 1.024-10.24 128 0 258.048s39.936 257.024 40.96 258.048c3.072 11.264-4.096 22.528-15.36 24.576H378.88c-9.216 0-17.408-6.144-19.456-15.36-1.024-5.12-30.72-131.072-40.96-264.192C307.2 425.984 317.44 301.056 317.44 294.912zM486.4 819.2V296.96c0-11.264 9.216-20.48 20.48-20.48s20.48 9.216 20.48 20.48v522.24c0 11.264-9.216 20.48-20.48 20.48s-20.48-9.216-20.48-20.48z m24.576-727.04c31.744 0 58.368 9.216 79.872 22.528-52.224-2.048-106.496-2.048-159.744 0 20.48-13.312 47.104-22.528 79.872-22.528z" p-id="15085"></path></svg>