<svg t="1614572426367" class="draw icon" viewBox="0 0 1024 1024" version="1.1" xmlns="http://www.w3.org/2000/svg" p-id="8181" ><path d="M800.46 547.624L413.14 934.93c-20.374 20.376-20.374 53.406 0 73.782 10.156 10.156 23.53 15.282 36.874 15.282s26.688-5.094 36.876-15.312l387.354-387.304-73.784-73.754z" fill="#ED5564" p-id="8182"></path><path d="M1004.52 416.408c-54.188 0-217.964 8.812-217.964 119.874 0 54.188 43.906 98.094 98.062 98.094 54.188 0 98.09-43.906 98.09-98.094 0-54.156 75.968-119.874 21.812-119.874z" fill="#965353" p-id="8183"></path><path d="M701.246 92.54c-28.876-29.28-64.312-51.968-105.406-67.468C551.746 8.448 500.826 0.01 444.42 0.01c-12.624 0-25.718 0.406-38.906 1.25-64.248 4.094-123.78 18.376-176.904 42.468-50.402 22.874-94.122 54.062-129.934 92.716-69.5 75-104.28 172.404-97.936 274.338C7.866 526.124 40.334 616.032 97.208 678c27.686 30.184 60.936 53.246 98.904 68.558 37.062 14.938 78.686 22.532 123.686 22.532 121.748 0 157.372-78.5 183.434-135.808 13.25-29.188 24.686-54.406 43.078-63.812 13.718-7.032 34.376-9.812 56.188-12.718 39.376-5.282 84.032-11.282 120.808-43.28 41.594-36.218 62.468-97.718 63.75-188.09 1.342-92.658-29.158-175.344-85.81-232.842zM597.34 448c-35.344 0-64.016-28.656-64.016-63.998s28.672-64 64.016-64 64 28.656 64 64S632.684 448 597.34 448z" fill="#FFD2A6" p-id="8184"></path><path d="M597.34 469.314c-47.062 0-85.358-38.282-85.358-85.31 0-47.062 38.296-85.342 85.358-85.342s85.344 38.282 85.344 85.342c0 47.028-38.282 85.31-85.344 85.31z m0-127.998c-23.532 0-42.656 19.156-42.656 42.686 0 23.5 19.124 42.654 42.656 42.654s42.656-19.156 42.656-42.654c0-23.53-19.124-42.686-42.656-42.686z" fill="#F4BE8E" p-id="8185"></path><path d="M469.326 149.32c0 23.562-19.094 42.686-42.656 42.686-23.562 0-42.686-19.124-42.686-42.686s19.124-42.656 42.686-42.656 42.656 19.092 42.656 42.656z" fill="#A0D468" p-id="8186"></path><path d="M426.67 85.32c-35.31 0-63.998 28.718-63.998 64 0 35.312 28.688 64 63.998 64 35.282 0 64-28.688 64-64 0-35.28-28.718-64-64-64z m0 85.344c-11.78 0-21.342-9.562-21.342-21.344 0-11.75 9.562-21.312 21.342-21.312 11.75 0 21.312 9.562 21.312 21.312 0 11.78-9.562 21.344-21.312 21.344z" fill="#8CC153" p-id="8187"></path><path d="M298.672 213.318c0 23.562-19.124 42.686-42.686 42.686s-42.656-19.124-42.656-42.686 19.094-42.656 42.656-42.656c23.562 0.002 42.686 19.094 42.686 42.656z" fill="#AC92EB" p-id="8188"></path><path d="M255.986 149.32c-35.282 0-64 28.718-64 64 0 35.312 28.718 63.998 64 63.998 35.312 0 64-28.686 64-63.998 0-35.282-28.688-64-64-64z m0 85.342c-11.75 0-21.312-9.562-21.312-21.342 0-11.75 9.562-21.312 21.312-21.312 11.78 0 21.342 9.562 21.342 21.312 0.002 11.78-9.562 21.342-21.342 21.342z" fill="#967ADC" p-id="8189"></path><path d="M213.33 362.66c0 23.562-19.094 42.654-42.654 42.654-23.562 0-42.688-19.092-42.688-42.654 0-23.562 19.124-42.656 42.688-42.656 23.56 0 42.654 19.094 42.654 42.656z" fill="#5D9CEC" p-id="8190"></path><path d="M170.676 298.66c-35.312 0-64 28.718-64 64 0 35.28 28.686 63.998 64 63.998 35.28 0 63.998-28.716 63.998-63.998s-28.718-64-63.998-64z m0 85.342c-11.782 0-21.344-9.592-21.344-21.342s9.562-21.344 21.344-21.344c11.75 0 21.31 9.594 21.31 21.344s-9.562 21.342-21.31 21.342z" fill="#4A89DC" p-id="8191"></path><path d="M234.674 533.312c0 23.562-19.124 42.688-42.688 42.688-23.56 0-42.654-19.124-42.654-42.688 0-23.562 19.094-42.656 42.654-42.656 23.562 0.002 42.688 19.094 42.688 42.656z" fill="#ED5564" p-id="8192"></path><path d="M191.986 469.314c-35.28 0-63.998 28.718-63.998 64s28.718 64 63.998 64c35.312 0 64-28.718 64-64s-28.688-64-64-64z m0 85.342c-11.75 0-21.31-9.562-21.31-21.344 0-11.75 9.562-21.312 21.31-21.312 11.782 0 21.344 9.562 21.344 21.312 0 11.782-9.562 21.344-21.344 21.344z" fill="#DA4453" p-id="8193"></path></svg>