<svg t="1617006338400" class="icon" viewBox="0 0 1024 1024" version="1.1" xmlns="http://www.w3.org/2000/svg" p-id="2226"
    width="48" height="48">
    <path
        d="M705.6 133.504h153.6a25.6 25.6 0 1 0 0-51.2h-153.6a25.6 25.6 0 1 0 0 51.2zM204.8 832a25.6 25.6 0 1 0 0 51.2h228.288a25.6 25.6 0 1 0 0-51.2H204.8z"
        p-id="2227"></path>
    <path
        d="M902.4 184.32l-228.608 0.192L602.56 63.808A25.6 25.6 0 0 0 580.544 51.2h-458.88c-28.224 0-51.2 22.976-51.2 51.2v819.2c0 28.224 22.976 51.2 51.2 51.2h371.2a25.6 25.6 0 1 0 0-51.2h-371.2V235.776l780.8-0.256V512a25.6 25.6 0 1 0 51.2 0V235.52c0-28.224-22.976-51.2-51.2-51.2zM121.6 102.4h444.288L614.4 184.512l-492.736 0.064V102.4z"
        p-id="2228"></path>
    <path
        d="M928 729.6h-166.464V563.2a25.6 25.6 0 1 0-51.2 0v166.4H544a25.6 25.6 0 1 0 0 51.2h166.336v166.4a25.6 25.6 0 1 0 51.2 0v-166.4H928a25.6 25.6 0 1 0 0-51.2z"
        p-id="2229"></path>
</svg>