<svg t="1616923157600" class="icon" viewBox="0 0 1024 1024" version="1.1" xmlns="http://www.w3.org/2000/svg" p-id="1715" width="48" height="48"><path d="M768 785.066667H170.666667c-64.034133 0-100.4032-34.3552-102.4-96.733867V335.36C70.280533 272.981333 106.632533 238.933333 170.666667 238.933333h597.333333c5.700267 0 11.025067 2.850133 14.199467 7.594667l170.666666 256a17.066667 17.066667 0 0 1 0 18.926933l-170.666666 256A17.066667 17.066667 0 0 1 768 785.066667zM170.666667 273.066667c-45.824 0-66.8672 19.387733-68.266667 62.839466V687.786667c1.399467 43.502933 22.459733 63.146667 68.266667 63.146666h588.202666l159.2832-238.933333-159.2832-238.933333H170.666667z" p-id="1716" fill="#d4237a"></path></svg>