<?xml version="1.0" encoding="iso-8859-1"?>
<!-- Generator: Adobe Illustrator 19.0.0, SVG Export Plug-In . SVG Version: 6.00 Build 0)  -->
<svg version="1.1" id="Layer_1" xmlns="http://www.w3.org/2000/svg" xmlns:xlink="http://www.w3.org/1999/xlink" x="0px" y="0px"
	 viewBox="0 0 504.32 504.32" style="enable-background:new 0 0 504.32 504.32;" xml:space="preserve">
<g transform="translate(1 1)">
	<path style="fill:#F2EDDA;" d="M250.733,259.87V89.204c0,0-34.133-17.067-76.8-17.067c-76.8,0-136.533,17.067-136.533,17.067
		v42.667v332.8c0,0,59.733-17.067,136.533-17.067c42.667,0,76.8,17.067,76.8,17.067s42.667-17.067,85.333-17.067
		c76.8,0,128,17.067,128,17.067v-332.8V89.204c0,0-17.067-8.533-51.2-8.533v136.533V80.67V3.87
		C344.6,29.47,250.733,89.204,250.733,89.204V259.87z"/>
	<path style="fill:#AAB1BA;" d="M498.2,131.87v332.8c0,18.773-15.36,34.133-34.133,34.133H250.733V464.67
		c0,0,42.667-17.067,85.333-17.067c76.8,0,128,17.067,128,17.067v-332.8H498.2z M250.733,464.67v34.133H37.4
		c-18.773,0-34.133-15.36-34.133-34.133v-332.8H37.4v332.8c0,0,59.733-17.067,136.533-17.067
		C216.6,447.604,250.733,464.67,250.733,464.67z"/>
</g>
<path style="fill:#51565F;" d="M465.067,504.07H38.4c-21.333,0-38.4-17.067-38.4-38.4v-332.8c0-2.56,1.707-4.267,4.267-4.267
	s4.267,1.707,4.267,4.267v332.8c0,16.213,13.653,29.867,29.867,29.867h209.067V468.23c-8.533-3.413-37.547-15.36-72.533-15.36
	c-75.093,0-134.827,17.067-135.68,17.067s-2.56,0-3.413-0.853s-1.707-1.707-1.707-3.413V90.204c0-1.707,0.853-3.413,3.413-4.267
	c0.853,0,61.44-17.067,137.387-17.067c43.52,0,77.653,17.067,78.507,17.92c1.707,0.853,2.56,2.56,2.56,3.413v333.653
	c21.333-11.947,90.453-51.2,153.6-72.533V10.844c-64.853,25.6-129.707,64.853-129.707,65.707c-1.707,0.853-4.267,0.853-5.973-1.707
	c-0.853-1.707-0.853-4.267,1.707-5.973c0.853-0.853,69.12-43.52,137.387-68.267c1.707-0.853,2.56,0,4.267,0.853
	c0.853,0.853,1.707,1.707,1.707,3.413v349.867c0,1.707-0.853,3.413-2.56,4.267c-75.093,24.747-160.427,75.947-161.28,76.8
	c-1.707,0.853-2.56,0.853-4.267,0c-1.707-0.853-2.56-2.56-2.56-3.413V93.617c-8.533-3.413-37.547-15.36-72.533-15.36
	c-65.707,0-119.467,12.8-132.267,16.213v366.933c16.213-4.267,69.12-16.213,132.267-16.213c38.4,0,69.12,12.8,76.8,17.067
	c8.533-3.413,46.933-17.067,85.333-17.067c63.147,0,108.373,11.093,123.733,15.36V94.47c-3.413-0.853-7.68-1.707-14.507-2.56
	c-2.56-0.853-4.267-2.56-3.413-5.12c0-2.56,2.56-4.267,5.12-3.413c11.093,1.707,17.92,3.413,17.92,3.413
	c1.707,0.853,3.413,2.56,3.413,4.267v375.467c0,1.707-0.853,2.56-1.707,3.413c-0.853,0.853-2.56,0.853-4.267,0.853
	c-0.853,0-51.2-17.067-126.293-17.067c-34.987,0-70.827,11.947-81.067,15.36v27.307H465.92c16.213,0,29.867-13.653,29.867-29.867
	v-332.8c0-2.56,1.707-4.267,4.267-4.267c2.56,0,4.267,1.707,4.267,4.267v332.8C503.467,487.004,486.4,504.07,465.067,504.07z
	 M89.6,376.07c-1.707,0-3.413-0.853-4.267-3.413c-0.853-2.56,0.853-4.267,3.413-5.12c2.56-0.853,61.44-16.213,112.64-4.267
	c2.56,0.853,3.413,2.56,3.413,5.12c-0.853,2.56-2.56,3.413-5.12,3.413c-49.493-11.947-108.373,3.413-109.227,4.267
	C90.453,376.07,89.6,376.07,89.6,376.07z M294.4,341.937c-1.707,0-3.413-0.853-3.413-2.56c-0.853-1.707,0-4.267,1.707-5.973
	c1.707-0.853,52.053-26.453,77.653-34.133c2.56-0.853,4.267,0.853,5.12,2.56c0.853,2.56-0.853,4.267-2.56,5.12
	c-24.747,7.68-75.947,33.28-75.947,34.133C296.107,341.937,295.253,341.937,294.4,341.937z M89.6,324.87
	c-1.707,0-3.413-0.853-4.267-3.413c-0.853-2.56,0.853-4.267,3.413-5.12s61.44-16.213,112.64-4.267c2.56,0.853,3.413,2.56,3.413,5.12
	c-0.853,2.56-2.56,3.413-5.12,3.413c-49.493-11.947-108.373,3.413-109.227,4.267C90.453,324.87,89.6,324.87,89.6,324.87z
	 M294.4,290.737c-1.707,0-3.413-0.853-3.413-2.56c-0.853-1.707,0-4.267,1.707-5.973c1.707-0.853,52.053-26.453,77.653-34.133
	c2.56-0.853,4.267,0.853,5.12,2.56c0.853,2.56-0.853,4.267-2.56,5.12c-24.747,7.68-75.947,33.28-75.947,34.133
	C296.107,290.737,295.253,290.737,294.4,290.737z M89.6,273.67c-1.707,0-3.413-0.853-4.267-3.413s0.853-4.267,3.413-5.12
	s61.44-16.213,112.64-4.267c2.56,0.853,3.413,2.56,3.413,5.12c-0.853,2.56-2.56,3.413-5.12,3.413
	c-49.493-11.947-108.373,3.413-109.227,4.267C90.453,273.67,89.6,273.67,89.6,273.67z M294.4,239.537
	c-1.707,0-3.413-0.853-3.413-2.56c-0.853-1.707,0-4.267,1.707-5.973c1.707-0.853,52.053-26.453,77.653-34.133
	c2.56-0.853,4.267,0.853,5.12,2.56c0.853,2.56-0.853,4.267-2.56,5.12c-24.747,7.68-75.947,33.28-75.947,34.133
	C296.107,239.537,295.253,239.537,294.4,239.537z M89.6,222.47c-1.707,0-3.413-0.853-4.267-3.413
	c-0.853-2.56,0.853-4.267,3.413-5.12s61.44-16.213,112.64-4.267c2.56,0.853,3.413,2.56,3.413,5.12
	c-0.853,2.56-2.56,3.413-5.12,3.413c-49.493-11.947-108.373,3.413-109.227,4.267C90.453,222.47,89.6,222.47,89.6,222.47z
	 M294.4,188.337c-1.707,0-3.413-0.853-3.413-2.56c-0.853-1.707,0-4.267,1.707-5.973c1.707-0.853,52.053-26.453,77.653-34.133
	c2.56-0.853,4.267,0.853,5.12,2.56c0.853,2.56-0.853,4.267-2.56,5.12c-24.747,7.68-75.947,33.28-75.947,34.133
	C296.107,188.337,295.253,188.337,294.4,188.337z M89.6,171.27c-1.707,0-3.413-0.853-4.267-3.413
	c-0.853-2.56,0.853-4.267,3.413-5.12c2.56-0.853,61.44-16.213,112.64-4.267c2.56,0.853,3.413,2.56,3.413,5.12
	c-0.853,2.56-2.56,3.413-5.12,3.413c-49.493-11.947-108.373,3.413-109.227,4.267C90.453,171.27,89.6,171.27,89.6,171.27z
	 M294.4,137.137c-1.707,0-3.413-0.853-3.413-2.56c-0.853-1.707,0-4.267,1.707-5.973c1.707-0.853,52.053-26.453,77.653-34.133
	c2.56-0.853,4.267,0.853,5.12,2.56c0.853,2.56-0.853,4.267-2.56,5.12c-24.747,7.68-75.947,33.28-75.947,34.133
	C296.107,137.137,295.253,137.137,294.4,137.137z"/>
<g>
</g>
<g>
</g>
<g>
</g>
<g>
</g>
<g>
</g>
<g>
</g>
<g>
</g>
<g>
</g>
<g>
</g>
<g>
</g>
<g>
</g>
<g>
</g>
<g>
</g>
<g>
</g>
<g>
</g>
</svg>
