<svg t="1618294919930" class="icon" viewBox="0 0 1024 1024" version="1.1" xmlns="http://www.w3.org/2000/svg" p-id="6130"
    width="48" height="48">
    <path
        d="M964.523683 0.031977L964.347812 0H59.63621l-0.175871 0.031977C26.780338 0.127906 0.31977 25.821038 0.31977 57.525755V964.635596a59.348416 59.348416 0 0 0 59.31644 59.364404h904.711602a59.348416 59.348416 0 0 0 59.31644-59.364404V57.525755c0-31.704717-26.460568-57.397848-59.140569-57.493778z"
        fill="#CCCCCC" p-id="6131"></path>
    <path
        d="M927.7347 191.955033h-863.365966V928.118413c0 17.683014 14.32548 32.024482 31.976517 32.024482h831.389449c17.651038 0 31.976517-14.32548 31.976517-32.024482V191.955033h-31.976517z"
        fill="#FFFFFF" p-id="6132"></path>
    <path
        d="M927.7347 191.955033h-543.600793v766.652989h26.71638c1.710744 0.287789 3.453464 0.527613 5.260137 0.527613h511.624276a31.976517 31.976517 0 0 0 31.976517-31.976517V191.955033h-31.976517z"
        fill="#48A0DC" p-id="6133"></path>
    <path
        d="M671.954538 575.865099c0-9.00139-3.741253-17.123425-9.704873-22.959139-0.239824-0.2718-0.36773-0.575577-0.623542-0.83139l-93.46736-94.026949a32.855871 32.855871 0 0 0-46.717691 0 33.351507 33.351507 0 0 0 0 47.005481l38.499726 38.73955H384.165883a32.024482 32.024482 0 0 0-31.992505 32.056459c0 17.714991 14.32548 32.072447 31.992505 32.072447h177.2938l-39.954658 39.93867a33.063719 33.063719 0 0 0 0 46.813621 33.14366 33.14366 0 0 0 46.861586 0l93.691195-93.627243a32.616048 32.616048 0 0 0 9.161272-18.434462c0.46366-2.174403 0.73546-4.444736 0.73546-6.747045zM735.875596 63.937046c-1.119178 0-2.174403 0.223836-3.245616 0.335754H96.345251a31.976517 31.976517 0 0 0 0 63.953034h639.530345a31.976517 31.976517 0 0 0 31.976518-31.976517l-0.015989-0.143894 0.015989-0.143895a31.992506 31.992506 0 0 0-31.976518-32.024482z m95.929552 0a31.992506 31.992506 0 0 0 0 64.016988 31.992506 31.992506 0 1 0 0-64.016988z m95.929552 0a31.992506 31.992506 0 0 0 0 64.016988 31.992506 31.992506 0 1 0 0-64.016988z"
        fill="#FFFFFF" p-id="6134"></path>
</svg>