<svg t="1618294992928" class="icon" viewBox="0 0 1024 1024" version="1.1" xmlns="http://www.w3.org/2000/svg" p-id="6278"
    width="48" height="48">
    <path
        d="M964.531672 0.031977L964.355801 0H59.644199l-0.175871 0.031977C26.788327 0.127906 0.327759 25.821038 0.327759 57.525755V964.635596a59.348416 59.348416 0 0 0 59.31644 59.364404h904.695614a59.348416 59.348416 0 0 0 59.316439-59.364404V57.525755c0.015988-31.704717-26.44458-57.397848-59.12458-57.493778z"
        fill="#CCCCCC" p-id="6279"></path>
    <path
        d="M927.742689 191.955033h-863.365966V928.118413c0 17.683014 14.309491 32.024482 31.976518 32.024482h831.389448c17.651038 0 31.976517-14.32548 31.976517-32.024482V191.955033h-31.976517z"
        fill="#FFFFFF" p-id="6280"></path>
    <path
        d="M607.961528 191.955033h-543.600793V928.118413c0 17.683014 14.309491 32.024482 31.976517 32.024482h511.624276c1.806673 0 3.533405-0.255812 5.260137-0.527612h26.732369V191.955033h-31.992506z"
        fill="#48A0DC" p-id="6281"></path>
    <path
        d="M639.922057 544.304277h-177.309788l39.970647-39.986635a33.159648 33.159648 0 0 0-46.861586-46.893563l-93.691196 93.755149c-5.212172 5.212172-8.154012 11.719394-9.161272 18.482427a32.088435 32.088435 0 0 0 8.969413 29.706184c0.239824 0.2718 0.383718 0.575577 0.63953 0.847378l93.46736 94.154855a32.823895 32.823895 0 0 0 46.717692 0 33.431449 33.431449 0 0 0 0-47.053445L464.147142 608.513123h175.790903c17.667026 0 31.976517-14.373445 31.976518-32.104423a32.056459 32.056459 0 0 0-31.992506-32.104423zM735.867597 63.937046c-1.119178 0-2.158415 0.223836-3.245616 0.335754H96.353241a31.976517 31.976517 0 0 0 0 63.953034h639.530344a31.976517 31.976517 0 0 0 31.976518-31.976517l-0.015989-0.143894 0.015989-0.143895a32.008494 32.008494 0 0 0-31.992506-32.024482z m95.94554 0a31.976517 31.976517 0 0 0-31.976517 32.024482 31.976517 31.976517 0 1 0 31.976517-32.024482z m95.929552 0a31.992506 31.992506 0 0 0 0 64.016988 31.992506 31.992506 0 1 0 0-64.016988z"
        fill="#FFFFFF" p-id="6282"></path>
</svg>