<svg t="1617610803979" class="icon" viewBox="0 0 1024 1024" version="1.1" xmlns="http://www.w3.org/2000/svg" p-id="4078" width="48" height="48"><path d="M33.167787 980.138667a32 32 0 0 1-31.957334-30.336c-3.584-68.266667 0.938667-136.661333 13.397334-203.349334 0.170667-1.024 0.298667-1.877333 0.512-2.645333A859.221333 859.221333 0 0 1 861.114453 43.605333c45.525333 0 91.264 3.626667 136.021334 10.794667a32.298667 32.298667 0 0 1 20.906666 12.842667c4.949333 6.826667 6.997333 15.573333 5.632 23.893333a817.92 817.92 0 0 1-133.248 331.178667 31.872 31.872 0 0 1-26.325333 13.824h-142.762667c10.538667 23.850667 24.96 56.661333 42.624 97.237333a31.914667 31.914667 0 0 1-7.808 36.437333 856.746667 856.746667 0 0 1-683.477333 217.472 799.36 799.36 0 0 0-7.509333 159.146667 31.914667 31.914667 0 0 1-30.293334 33.621333 24.021333 24.021333 0 0 1-1.706666 0.085334z m51.456-255.829334A793.6 793.6 0 0 0 695.951787 537.6a13244.714667 13244.714667 0 0 0-52.906667-119.893333 32.128 32.128 0 0 1 29.013333-45.568h174.976a757.12 757.12 0 0 0 107.477334-259.072 803.669333 803.669333 0 0 0-134.954667-4.394667c-354.944 18.602667-654.72 270.762667-734.933333 615.637333z" p-id="4079" fill="#d4237a"></path></svg>