<svg t="1617246774678" class="icon" viewBox="0 0 1024 1024" version="1.1" xmlns="http://www.w3.org/2000/svg" p-id="4210"
    width="48" height="48">
    <path
        d="M725.306 42.696c-83.56 0-159.122 34.342-213.306 89.668-54.202-55.326-129.746-89.668-213.32-89.668C133.732 42.696 0.018 176.41 0.018 341.342 0.018 682.69 512 981.304 512 981.304s511.982-298.616 511.982-639.962c0-164.932-133.714-298.646-298.676-298.646z"
        fill="#EC87C0" p-id="4211"></path>
    <path
        d="M725.306 42.696a299.8 299.8 0 0 0-42.624 3.046c144.714 20.702 255.992 145.15 255.992 295.6 0 280.756-346.394 532.624-469.344 613.182 26.53 17.406 42.67 26.78 42.67 26.78s511.982-298.616 511.982-639.962c0-164.932-133.714-298.646-298.676-298.646z"
        fill="#FFFFFF" opacity=".2" p-id="4212"></path>
</svg>