<svg t="1616923141404" class="icon" viewBox="0 0 1024 1024" version="1.1" xmlns="http://www.w3.org/2000/svg" p-id="1426" width="48" height="48"><path d="M853.333333 785.066667H256c-5.700267 0-11.025067-2.850133-14.199467-7.594667l-170.666666-256a17.066667 17.066667 0 0 1 0-18.926933l170.666666-256A17.066667 17.066667 0 0 1 256 238.933333h597.333333c64.0512 0 100.420267 34.3552 102.382934 96.733867L955.733333 688.64c-1.9968 62.378667-38.365867 96.426667-102.4 96.426667z m-588.202666-34.133334H853.333333c45.824 0 66.884267-19.387733 68.283734-62.856533L921.6 336.213333c-1.3824-43.502933-22.442667-63.146667-68.266667-63.146666H265.130667L105.847467 512l159.2832 238.933333z" p-id="1427" fill="#d4237a"></path></svg>