<svg t="1616895722439" class="icon" viewBox="0 0 1024 1024" version="1.1" xmlns="http://www.w3.org/2000/svg" p-id="7803" width="64" height="64"><path d="M566.458182 131.025455c127.534545 5.12 281.6 21.876364 384.232727 146.385454 135.912727 164.770909 69.818182 518.283636-96.814545 635.810909-102.632727 72.145455-267.403636 88.669091-392.610909 72.610909a401.454545 401.454545 0 0 1-259.025455-133.818182C114.501818 754.967273 23.272727 472.669091 170.821818 274.850909c106.589091-143.825455 302.778182-147.549091 395.636364-143.825454z" fill="#FF7D5A" p-id="7804"></path><path d="M485.469091 188.043636s46.545455-87.970909 130.792727-116.363636 131.490909 10.24 130.792727 16.523636c0 13.265455-112.872727 67.490909-102.632727 116.363637a325.818182 325.818182 0 0 1 162.909091-46.545455c80.989091 4.189091 171.985455 30.487273 179.2 59.578182 6.283636 25.134545-84.712727 93.090909-155.461818 111.243636-64.698182 17.454545-174.545455-44.218182-180.130909-38.865454S674.909091 353.745455 669.323636 395.636364a140.8 140.8 0 0 1-120.087272 109.381818c-37.934545 1.396364-104.727273-80.058182-107.985455-121.949091a291.84 291.84 0 0 1 9.309091-94.952727 167.098182 167.098182 0 0 1-97.745455 33.512727c-52.596364-2.327273-177.570909-49.105455-172.218181-82.618182 8.378182-51.432727 139.636364-95.418182 188.043636-99.374545s116.829091 48.407273 116.829091 48.407272z" fill="#73D36E" p-id="7805"></path><path d="M513.629091 242.967273a35.84 23.505455 0 1 0 71.68 0 35.84 23.505455 0 1 0-71.68 0Z" fill="#36912F" p-id="7806"></path><path d="M183.854545 550.167273c-14.894545-33.047273 2.56-138.007273 41.192728-138.007273 13.730909 0-10.705455 33.047273 8.145454 127.301818 5.818182 29.789091-42.123636 26.996364-49.338182 10.705455zM261.818182 340.247273c9.774545 7.68 7.68 18.850909 0 29.556363s-18.850909 16.290909-28.625455 8.610909a23.272727 23.272727 0 0 1-3.258182-33.047272 23.272727 23.272727 0 0 1 31.883637-5.12z" fill="#FFFFFF" p-id="7807"></path><path d="M748.218182 896.232727c-107.054545 56.32-251.112727 62.836364-350.487273 50.036364a388.421818 388.421818 0 0 1-252.043636-129.861818C59.810909 721.454545-26.298182 444.276364 114.967273 253.905455c2.56-3.490909 5.352727-6.749091 8.145454-10.24a316.276364 316.276364 0 0 0 162.909091 60.741818 201.076364 201.076364 0 0 0 104.494546-35.607273 11.636364 11.636364 0 1 0-13.730909-18.850909 178.734545 178.734545 0 0 1-90.996364 31.185454 285.789091 285.789091 0 0 1-151.970909-59.345454c-4.887273-5.12-6.749091-9.076364-6.516364-10.938182 1.629091-30.952727 76.567273-67.025455 144.756364-82.618182a11.636364 11.636364 0 0 0 8.843636-13.963636 11.403636 11.403636 0 0 0-13.963636-8.843636C211.781818 117.992727 107.054545 155.927273 104.029091 209.454545a30.487273 30.487273 0 0 0 3.956364 15.825455c-3.956364 4.654545-7.912727 9.541818-11.636364 14.661818-151.04 203.403636-60.741818 488.727273 32.116364 591.825455A410.530909 410.530909 0 0 0 395.636364 969.309091a729.832727 729.832727 0 0 0 93.090909 5.818182 600.669091 600.669091 0 0 0 272.058182-58.181818 11.636364 11.636364 0 0 0-10.938182-20.48zM782.196364 875.752727l-3.956364 2.792728a11.636364 11.636364 0 0 0 13.032727 19.316363l4.189091-2.792727a11.636364 11.636364 0 1 0-13.265454-19.083636zM947.665455 340.014545a11.636364 11.636364 0 0 0-22.109091 7.447273c52.829091 156.392727 3.956364 383.767273-106.356364 496.64a11.636364 11.636364 0 1 0 16.523636 16.290909c118.458182-120.552727 168.261818-353.978182 111.941819-520.378182zM930.909091 186.181818c-7.447273-38.167273-114.734545-67.956364-186.181818-71.447273a320 320 0 0 0-151.272728 38.167273 209.454545 209.454545 0 0 1 55.854546-51.2l11.869091-8.610909c21.643636-15.592727 31.650909-23.272727 32.349091-32.349091s-3.025455-12.101818-11.403637-18.385454-53.76-37.934545-134.981818-10.24a269.032727 269.032727 0 0 0-129.861818 110.08 227.141818 227.141818 0 0 0-56.087273-33.745455 11.636364 11.636364 0 0 0-8.610909 21.643636 210.850909 210.850909 0 0 1 59.578182 38.4 11.869091 11.869091 0 0 0 10.007273 3.025455 11.636364 11.636364 0 0 0 8.378182-6.050909s46.545455-84.247273 124.276363-111.476364c60.509091-20.945455 98.909091-3.490909 111.941818 5.585455-4.887273 3.956364-12.567273 9.541818-19.083636 14.196363l-12.101818 8.843637c-37.469091 27.461818-74.938182 60.509091-67.723637 94.952727a11.636364 11.636364 0 0 0 6.749091 8.378182 11.636364 11.636364 0 0 0 10.705455 0S668.858182 134.749091 744.727273 139.636364c84.945455 4.189091 160.814545 37.469091 162.909091 52.363636s-73.541818 77.963636-147.083637 97.978182a11.636364 11.636364 0 0 0 3.025455 23.272727h3.025454C833.629091 293.701818 939.287273 225.28 930.909091 186.181818zM302.545455 122.647273h1.396363a78.894545 78.894545 0 0 1 14.894546 0 11.869091 11.869091 0 0 0 12.567272-10.705455 11.636364 11.636364 0 0 0-10.705454-12.567273 104.96 104.96 0 0 0-19.316364 0 11.636364 11.636364 0 0 0 1.396364 23.272728z" fill="#604D42" p-id="7808"></path></svg>