<svg id="Capa_1" enable-background="new 0 0 512 512" height="512" viewBox="0 0 512 512" width="512" xmlns="http://www.w3.org/2000/svg"><g><g><g><g><g><path d="m419.775 247.702v169.131c0 5.141-2.816 9.869-7.339 12.32l-149.758 81.142c-4.168 2.256-9.194 2.256-13.35 0l-149.77-81.142c-4.511-2.45-7.328-7.179-7.328-12.32v-169.131z" fill="#a8e7ef"/><g fill="#70d9e6"><path d="m419.775 278.134v57.545l-86.535 46.885c-3.435 1.855-7.477 2.198-11.175.95l-66.063-22.372v-83.008z"/><path d="m390.165 247.703v193.516l22.272-12.068c4.521-2.45 7.338-7.179 7.338-12.321v-169.127z"/><path d="m256.003 247.702v264.298c-2.301 0-4.591-.561-6.687-1.694l-149.758-81.154c-4.511-2.462-7.328-7.179-7.328-12.32v-169.13z"/></g><path d="m256.003 278.134v83.008l-66.075 22.372c-3.687 1.248-7.74.904-11.163-.95l-86.535-46.885v-57.545z" fill="#3ad1e0"/><path d="m226.954 247.702v250.478l22.367 12.12c2.088 1.135 4.386 1.696 6.684 1.696v-264.294z" fill="#3ad1e0"/><path d="m256 158.966-163.775 88.737 163.775 88.736 163.775-88.736z" fill="#756f6f"/><path d="m386.08 265.964-130.077 70.471-130.077-70.471 85.206-46.169c27.991-15.167 61.75-15.167 89.741 0z" fill="#5b5555"/></g><g><path d="m471.874 187.931-52.098 59.772-163.776-88.737 54.161-62.135c2.155-2.472 5.736-3.119 8.62-1.557l151.149 81.892c3.945 2.138 4.892 7.382 1.944 10.765z" fill="#a8e7ef"/><path d="m328.351 118.957c0 12.217-9.905 22.132-22.121 22.132-9.925 0-18.32-6.53-21.121-15.518l24.787-28.432c10.477 1.749 18.455 10.851 18.455 21.818z" fill="#70d9e6"/></g><g><path d="m40.126 187.931 52.098 59.772 163.776-88.737-54.161-62.135c-2.155-2.472-5.736-3.119-8.62-1.557l-151.148 81.893c-3.946 2.137-4.893 7.381-1.945 10.764z" fill="#d4f2f6"/><path d="m163.214 131.059c0 15.383-12.477 27.849-27.86 27.849-11.967 0-22.173-7.551-26.11-18.143l48.502-26.277c3.437 4.625 5.468 10.364 5.468 16.571z" fill="#a8e7ef"/></g><g><path d="m35.57 266.887 56.655-19.185 163.775 88.737-66.068 22.37c-3.694 1.251-7.741.906-11.17-.952l-144.283-78.172c-5.377-2.914-4.702-10.836 1.091-12.798z" fill="#a8e7ef"/></g><g><path d="m476.43 266.887-56.655-19.185-163.775 88.737 66.068 22.37c3.694 1.251 7.741.906 11.17-.952l144.282-78.172c5.378-2.914 4.703-10.836-1.09-12.798z" fill="#d4f2f6"/></g></g><path d="m299.746 453.899c-2.744 0-5.401-1.465-6.801-4.047-2.032-3.752-.639-8.441 3.113-10.474l17.724-9.603c3.755-2.034 8.442-.639 10.475 3.113 2.032 3.752.639 8.441-3.113 10.474l-17.724 9.603c-1.17.634-2.431.934-3.674.934z" fill="#31a7fb"/><g><g><g><g><path d="m107.501 103.203c0-15.384 12.471-27.855 27.855-27.855s27.855 12.471 27.855 27.855-12.471 27.855-27.855 27.855-27.855-12.471-27.855-27.855" fill="#bcea73"/><path d="m121.228 127.207c10.934-2.52 19.081-12.309 19.081-24.007 0-11.686-8.134-21.487-19.068-24.007 4.137-2.444 8.961-3.844 14.117-3.844 15.377 0 27.851 12.475 27.851 27.851 0 15.389-12.475 27.864-27.851 27.864-5.156 0-9.993-1.4-14.13-3.857" fill="#99d53b"/></g><g fill="#bcea73"><path d="m199.633 22.738c-3.018-3.017-7.909-3.017-10.928 0l-6.374 6.374-6.374-6.374c-3.018-3.017-7.909-3.017-10.928 0-3.017 3.017-3.017 7.909 0 10.927l6.374 6.374-6.374 6.374c-3.017 3.017-3.017 7.909 0 10.927 1.509 1.509 3.487 2.263 5.464 2.263s3.955-.755 5.464-2.263l6.374-6.374 6.374 6.374c1.509 1.509 3.487 2.263 5.464 2.263s3.955-.755 5.464-2.263c3.017-3.017 3.017-7.909 0-10.927l-6.374-6.374 6.374-6.374c3.017-3.018 3.017-7.91 0-10.927z"/><path d="m422 90.652 6.374-6.374c3.017-3.017 3.017-7.909 0-10.927-3.018-3.017-7.909-3.017-10.928 0l-6.374 6.374-6.374-6.374c-3.018-3.017-7.909-3.017-10.928 0-3.017 3.017-3.017 7.909 0 10.927l6.374 6.374-6.374 6.374c-3.017 3.017-3.017 7.909 0 10.927 1.509 1.509 3.487 2.263 5.464 2.263s3.955-.755 5.464-2.263l6.374-6.374 6.374 6.374c1.509 1.509 3.487 2.263 5.464 2.263s3.955-.755 5.464-2.263c3.017-3.017 3.017-7.909 0-10.927z"/></g></g></g><g><circle cx="306.227" cy="96.834" fill="#64b9fc" r="22.125"/><path d="m328.351 96.831c0 12.224-9.909 22.133-22.123 22.133-4.095 0-7.937-1.112-11.223-3.064 8.685-2.002 15.156-9.777 15.156-19.069 0-9.282-6.461-17.067-15.146-19.069 3.286-1.941 7.118-3.054 11.213-3.054 12.214 0 22.123 9.909 22.123 22.123z" fill="#31a7fb"/></g></g></g><g><circle cx="351.116" cy="25.935" fill="#a8e7ef" r="25.935"/><path d="m377.05 25.932c0 14.329-11.615 25.944-25.932 25.944-4.8 0-9.304-1.304-13.156-3.591 10.181-2.347 17.766-11.461 17.766-22.353 0-10.88-7.573-20.006-17.754-22.353 3.851-2.275 8.343-3.579 13.143-3.579 14.318 0 25.933 11.615 25.933 25.932z" fill="#70d9e6"/></g></g><g><path d="m326.742 273.153c0 9.982-2.071 19.491-5.81 28.103l-64.932 35.181-64.932-35.181c-3.739-8.612-5.81-18.121-5.81-28.103 0-39.064 31.678-70.743 70.742-70.743s70.742 31.678 70.742 70.743z" fill="#a3e440"/><path d="m326.732 273.153c0 9.982-2.071 19.491-5.8 28.103l-45.709 24.766c14.567-12.96 23.746-31.843 23.746-52.869 0-34.315-24.426-62.913-56.845-69.372 4.492-.896 9.127-1.36 13.877-1.36 39.063-.001 70.731 31.657 70.731 70.732z" fill="#99d53b"/><g><path d="m270.056 301.935c-1.774 0-3.556-.608-5.012-1.85-2.502-2.135-6.097-3.367-9.864-3.378-.017 0-.034 0-.051 0-3.748 0-7.33 1.208-9.833 3.319-3.263 2.75-8.138 2.336-10.887-.927-2.752-3.262-2.336-8.136.926-10.887 5.324-4.489 12.35-6.958 19.794-6.958h.098c7.481.023 14.531 2.536 19.851 7.077 3.245 2.77 3.631 7.647.86 10.893-1.53 1.791-3.699 2.711-5.882 2.711z" fill="#82b732"/><g><g><path d="m222.387 273.826c-.018 0-.036 0-.054 0-4.268-.03-7.738-3.513-7.709-7.78.03-4.267 3.472-7.736 7.743-7.673l.072.001c4.268.03 7.702 3.513 7.673 7.78-.03 4.248-3.483 7.672-7.725 7.672z" fill="#82b732"/></g></g></g></g><path d="m289.678 273.826c-.018 0-.036 0-.054 0-4.268-.03-7.738-3.513-7.709-7.78.03-4.248 3.448-7.673 7.689-7.673h.054l.072.001c4.268.03 7.702 3.513 7.673 7.78-.03 4.248-3.483 7.672-7.725 7.672z" fill="#82b732"/></g></svg>