<svg t="1617010882821" class="icon" viewBox="0 0 1024 1024" version="1.1" xmlns="http://www.w3.org/2000/svg" p-id="13452" width="48" height="48"><path d="M106.666667 277.333333h810.666666v640H106.666667z" fill="#CFD8DC" p-id="13453"></path><path d="M149.333333 320h725.333334v554.666667H149.333333z" fill="#FFFFFF" p-id="13454"></path><path d="M832 832H192V362.666667h640z" fill="#8BC34A" p-id="13455"></path><path d="M149.333333 192h725.333334v85.333333H149.333333z" fill="#B0BEC5" p-id="13456"></path><path d="M192 234.666667h640v42.666666H192z" fill="#ECEFF1" p-id="13457"></path><path d="M192 106.666667h640v85.333333H192z" fill="#90A4AE" p-id="13458"></path><path d="M234.666667 149.333333h554.666666v42.666667H234.666667z" fill="#CFD8DC" p-id="13459"></path><path d="M554.666667 448c0 23.466667-42.666667 128-42.666667 128s-42.666667-104.533333-42.666667-128a42.666667 42.666667 0 0 1 85.333334 0zM469.333333 746.666667c0-23.466667 42.666667-128 42.666667-128s42.666667 104.533333 42.666667 128a42.666667 42.666667 0 0 1-85.333334 0zM661.333333 640c-23.466667 0-128-42.666667-128-42.666667s104.533333-42.666667 128-42.666666a42.666667 42.666667 0 0 1 0 85.333333zM362.666667 554.666667c23.466667 0 128 42.666667 128 42.666666s-104.533333 42.666667-128 42.666667a42.666667 42.666667 0 0 1 0-85.333333zM647.68 521.813333c-16.64 16.853333-120.533333 60.373333-120.533333 60.373334s42.666667-103.893333 60.373333-120.533334a42.666667 42.666667 0 0 1 60.16 60.16zM376.32 672.853333c16.64-16.853333 120.533333-60.373333 120.533333-60.373333s-42.666667 103.893333-60.373333 120.533333a42.666667 42.666667 0 1 1-60.16-60.16zM587.52 733.013333c-16.853333-16.64-60.373333-120.533333-60.373333-120.533333s103.893333 42.666667 120.533333 60.373333a42.666667 42.666667 0 1 1-60.16 60.16zM436.48 461.653333c16.853333 16.64 60.373333 120.533333 60.373333 120.533334s-103.893333-42.666667-120.533333-60.373334a42.666667 42.666667 0 0 1 60.16-60.16z" fill="#FFFFFF" p-id="13460"></path><path d="M512 597.333333m-64 0a64 64 0 1 0 128 0 64 64 0 1 0-128 0Z" fill="#FFEB3B" p-id="13461"></path></svg>