<svg t="1614572094443" class="layer icon" width="14" height="14" viewBox="0 0 1024 1024" version="1.1" xmlns="http://www.w3.org/2000/svg" ><path d="M512 471.86L105.62 322.2 512 172.54 918.38 322.2 512 471.86z" fill="#4CC9C5" p-id="1150"></path><path d="M512 504.73a33.1 33.1 0 0 1-11.36-2L94.25 353.05a32.88 32.88 0 0 1 0-61.7l406.38-149.66a32.9 32.9 0 0 1 22.73 0l406.39 149.66a32.88 32.88 0 0 1 0 61.7L523.36 502.71a33.16 33.16 0 0 1-11.36 2.02zM200.74 322.2L512 436.82 823.25 322.2 512 207.58z" fill="#4CC9C5" p-id="1151"></path><path d="M512 694.54a32.88 32.88 0 0 1-11.36-2L94.25 542.86A32.88 32.88 0 0 1 117 481.15l395 145.48 395-145.48a32.88 32.88 0 1 1 22.73 61.71L523.36 692.51a32.94 32.94 0 0 1-11.36 2.03z" fill="#2F3240" p-id="1152"></path><path d="M512 884.33a32.87 32.87 0 0 1-11.36-2L94.25 732.65A32.88 32.88 0 1 1 117 671l395 145.42L907 671a32.88 32.88 0 1 1 22.73 61.7L523.36 882.31a32.92 32.92 0 0 1-11.36 2.02z" fill="#2F3240" p-id="1153"></path></svg>