<svg t="1617078084283" class="icon" viewBox="0 0 1024 1024" version="1.1" xmlns="http://www.w3.org/2000/svg" p-id="4194" width="48" height="48"><path d="M849.427 1000.999h-157.9c-73.785 0-132.809-59.029-132.809-132.809v-258.243c0-14.759 10.33-26.562 25.088-29.513 4.427-1.472 8.853-2.953 13.278-2.953h252.337c73.785 0 132.809 59.029 132.809 132.809v157.9c-1.472 72.309-60.5 132.809-132.809 132.809zM616.268 636.505v231.684c0 39.844 32.468 73.785 73.785 73.785h157.9c39.844 0 73.785-32.468 73.785-73.785v-157.9c0-39.844-32.468-73.785-73.785-73.785h-231.684z" p-id="4195" fill="#13227a"></path><path d="M315.23 1000.999h-147.571c-76.736 0-137.241-61.981-137.241-137.241v-147.571c0-76.736 61.981-137.241 137.241-137.241h247.911c4.427 0 8.853 1.472 13.278 2.953 14.759 1.472 25.088 14.759 25.088 29.513v253.814c0 73.785-61.981 135.764-138.711 135.764zM167.657 636.505c-42.796 0-78.211 35.418-78.211 78.211v147.571c0 44.269 35.418 78.211 78.211 78.211h147.571c42.796 0 78.211-35.418 78.211-78.211v-225.779h-225.779z" p-id="4196" fill="#13227a"></path><path d="M415.576 471.232h-255.291c-72.309 0-129.859-57.549-129.859-129.859v-163.801c0-72.309 57.549-129.859 129.859-129.859h163.801c72.309 0 129.859 57.549 129.859 129.859v261.199c0 14.759-10.33 26.562-25.088 29.513-4.427 1.472-8.853 2.953-13.278 2.953zM158.805 105.259c-38.369 0-70.836 32.468-70.836 70.836v165.279c0 38.369 32.468 70.836 70.836 70.836h234.634v-234.634c0-38.369-32.468-70.836-70.836-70.836h-163.801z" p-id="4197" fill="#13227a"></path><path d="M847.948 471.232h-252.337c-4.427 0-8.853-1.472-13.278-2.953-14.759-1.472-25.088-14.759-25.088-29.513v-258.243c0-73.785 60.5-134.287 134.287-134.287h156.423c73.785 0 134.287 60.5 134.287 134.287v156.423c-1.472 73.785-60.5 134.287-134.287 134.287zM616.268 412.199h230.207c41.318 0 75.263-33.941 75.263-75.263v-156.423c0-41.318-33.941-75.263-75.263-75.263h-156.423c-41.318 0-75.263 33.941-75.263 75.263v231.684z" p-id="4198" fill="#13227a"></path></svg>