<svg t="1614572705750" class="paste icon" viewBox="0 0 1024 1024" version="1.1" xmlns="http://www.w3.org/2000/svg" p-id="13717"><path d="M682.666667 85.333333H170.666667a85.333333 85.333333 0 0 0-85.333334 85.333334v512a85.333333 85.333333 0 0 0 85.333334 85.333333h512a85.333333 85.333333 0 0 0 85.333333-85.333333V170.666667a85.333333 85.333333 0 0 0-85.333333-85.333334z m0 597.333334H170.666667V170.666667h512z m-320 170.666666H256a85.333333 85.333333 0 0 0 85.333333 85.333334h21.333334a21.333333 21.333333 0 0 0 21.333333-21.333334v-42.666666a21.333333 21.333333 0 0 0-21.333333-21.333334z m170.666666 0h-42.666666a21.333333 21.333333 0 0 0-21.333334 21.333334v42.666666a21.333333 21.333333 0 0 0 21.333334 21.333334h42.666666a21.333333 21.333333 0 0 0 21.333334-21.333334v-42.666666a21.333333 21.333333 0 0 0-21.333334-21.333334z m170.666667 0h-42.666667a21.333333 21.333333 0 0 0-21.333333 21.333334v42.666666a21.333333 21.333333 0 0 0 21.333333 21.333334h42.666667a21.333333 21.333333 0 0 0 21.333333-21.333334v-42.666666a21.333333 21.333333 0 0 0-21.333333-21.333334z m213.333333-42.666666H853.333333a20.053333 20.053333 0 0 0-16.64 8.533333 107.52 107.52 0 0 1-17.066666 17.066667 20.053333 20.053333 0 0 0-8.96 17.066666v65.706667a11.093333 11.093333 0 0 0 4.693333 8.96 10.666667 10.666667 0 0 0 9.386667 0 170.666667 170.666667 0 0 0 104.106666-104.106667 10.666667 10.666667 0 0 0 0-9.386666 11.093333 11.093333 0 0 0-10.24-3.84zM853.333333 256v106.666667a21.333333 21.333333 0 0 0 21.333334 21.333333h42.666666a21.333333 21.333333 0 0 0 21.333334-21.333333V341.333333a85.333333 85.333333 0 0 0-85.333334-85.333333z m64 213.333333h-42.666666a21.333333 21.333333 0 0 0-21.333334 21.333334v42.666666a21.333333 21.333333 0 0 0 21.333334 21.333334h42.666666a21.333333 21.333333 0 0 0 21.333334-21.333334v-42.666666a21.333333 21.333333 0 0 0-21.333334-21.333334z m0 170.666667h-42.666666a21.333333 21.333333 0 0 0-21.333334 21.333333v42.666667a21.333333 21.333333 0 0 0 21.333334 21.333333h42.666666a21.333333 21.333333 0 0 0 21.333334-21.333333v-42.666667a21.333333 21.333333 0 0 0-21.333334-21.333333z" p-id="13718"></path></svg>