<svg t="1614592421493" class="icon" viewBox="0 0 1024 1024" version="1.1" xmlns="http://www.w3.org/2000/svg" p-id="57857" width="200" height="200"><path d="M853.333333 955.733333H170.666667c-66.030933 0-102.4-36.369067-102.4-102.4V170.666667c0-66.030933 36.369067-102.4 102.4-102.4h682.666666c66.030933 0 102.4 36.369067 102.4 102.4v682.666666c0 75.178667-44.765867 96.648533-82.3296 101.410134-6.724267 0.648533-13.2608 0.989867-20.0704 0.989866zM170.666667 102.4c-47.223467 0-68.266667 21.0432-68.266667 68.266667v682.666666c0 47.223467 21.0432 68.266667 68.266667 68.266667h682.666666c5.6832 0 11.1104-0.273067 16.264534-0.768C905.4208 916.2752 921.6 895.453867 921.6 853.333333V170.666667c0-47.223467-21.0432-68.266667-68.266667-68.266667H170.666667z" p-id="57858"></path><path d="M681.813333 716.8h-221.866666a40.96 40.96 0 0 1-2.491734-0.085333c-39.5776-2.901333-74.1376-18.858667-102.724266-47.4624C323.208533 637.713067 307.2 599.159467 307.2 554.666667c0-44.509867 16.008533-83.080533 47.5648-114.602667C386.286933 408.541867 424.840533 392.533333 469.333333 392.533333h45.585067l-27.050667-27.067733a34.133333 34.133333 0 1 1 48.264534-48.264533l85.1456 85.1456a33.928533 33.928533 0 0 1 10.103466 26.658133 33.962667 33.962667 0 0 1-9.745066 21.623467l-0.017067 0.017066h-0.017067c0.017067 0.034133-0.034133 0.0512-0.0512 0.0512 0 0-0.034133-0.017067-0.034133 0.034134h-0.017067l-0.034133 0.034133-85.333333 85.333333a34.133333 34.133333 0 1 1-48.264534-48.264533L514.9184 460.8H469.333333c-26.094933 0-47.7696 9.0112-66.304 27.5456C384.477867 506.88 375.466667 528.571733 375.466667 554.666667c0 26.077867 9.0112 47.786667 27.5456 66.321066 16.622933 16.64 35.6864 25.6512 58.2656 27.5456H681.813333a34.133333 34.133333 0 0 1 0 68.266667z" p-id="57859"></path></svg>