<svg t="1614592405409" class="icon" viewBox="0 0 1024 1024" version="1.1" xmlns="http://www.w3.org/2000/svg" p-id="56435" width="200" height="200"><path d="M853.333333 955.733333H170.666667c-6.843733 0-13.3632-0.341333-19.5584-0.938666C113.0496 949.981867 68.266667 928.512 68.266667 853.333333V170.666667c0-66.030933 36.369067-102.4 102.4-102.4h682.666666c66.030933 0 102.4 36.369067 102.4 102.4v682.666666c0 66.030933-36.369067 102.4-102.4 102.4zM170.666667 102.4c-47.223467 0-68.266667 21.0432-68.266667 68.266667v682.666666c0 42.120533 16.196267 62.941867 52.497067 67.549867 4.6592 0.443733 10.0864 0.7168 15.7696 0.7168h682.666666c47.223467 0 68.266667-21.0432 68.266667-68.266667V170.666667c0-47.223467-21.0432-68.266667-68.266667-68.266667H170.666667z" p-id="56436"></path><path d="M564.053333 716.8h-221.866666a34.133333 34.133333 0 0 1 0-68.266667h220.535466c22.562133-1.8944 41.6256-10.922667 58.248534-27.5456C639.522133 602.453333 648.533333 580.7616 648.533333 554.666667s-8.994133-47.786667-27.528533-66.304C602.453333 469.8112 580.744533 460.8 554.666667 460.8h-45.585067l27.050667 27.067733a34.133333 34.133333 0 1 1-48.264534 48.264534l-85.1456-85.1456a33.792 33.792 0 0 1-10.103466-26.658134c0.529067-7.867733 3.7888-15.598933 9.762133-21.6576l0.034133-0.034133c0.017067-0.017067 0.034133 0 0.034134-0.034133l0.034133-0.034134 0.034133-0.034133 85.333334-85.333333a34.133333 34.133333 0 1 1 48.264533 48.264533L509.0816 392.533333H554.666667c44.4928 0 83.0464 16.008533 114.5856 47.547734C700.791467 471.586133 716.8 510.139733 716.8 554.666667c0 44.4928-16.008533 83.063467-47.547733 114.602666-28.586667 28.586667-63.1296 44.544-102.724267 47.445334a39.936 39.936 0 0 1-2.474667 0.085333z" p-id="56437"></path></svg>